# xmcd
#
# Track frame offsets: 
#        150
#        16642
#        32125
#        44893
#        56202
#        72866
#        86396
#        99665
#        113625
#        127533
#        138714
#        153599
#        165729
#        178181
#        191451
#        203583
#        216521
#        229342
#
# Disc length: 3228 seconds
#
# Revision: 1
# Processed by: cddbd v1.5.2PL0 Copyright (c) Steve Scherf et al.
# Submitted via: ExactAudioCopy v1.0b1
#
DISCID=fe0c9a12
DTITLE=Various Artist - Blues Spirit - Disc 01
DYEAR=1900
DGENRE=Blues
TTITLE0=John Lee Hooker - Helpless Blues
TTITLE1=Bessie Smith - Careless Love Blues
TTITLE2=Lightnin' Hopkins - You're Not Goin' To Worry My Life Anymore
TTITLE3=Arthur Big Boy Crudup - Keep Your Arms Around Me
TTITLE4=Jelly Roll Morton - If Someone Would Only Love Me
TTITLE5=John Lee Hooker - Crawlin' King Snake
TTITLE6=Dr. Clayton - 41 Blues
TTITLE7=Bessie Smith - Gulf Coast Blues
TTITLE8=Arthur Big Boy Crudup - Dirt Road Blues
TTITLE9=John Lee Hooker - Boom Boom
TTITLE10=Memphis Minnie - Bumble Bee
TTITLE11=Big Joe Turner - I Got My Discharge Papers
TTITLE12=Big Bill Broonzy - Good Liquor Gonna Carry Me Down
TTITLE13=Lonnie Johnson - Keep What You Got
TTITLE14=John Lee Williamson - Bad Luck Blues
TTITLE15=Big Bill Broonzy - How You Want It Done
TTITLE16=Brownie McGhee - I'm A Black Woman's Man
TTITLE17=Champion Jack Dupree - Dupree Shake Dance
EXTD=
EXTT0=
EXTT1=
EXTT2=
EXTT3=
EXTT4=
EXTT5=
EXTT6=
EXTT7=
EXTT8=
EXTT9=
EXTT10=
EXTT11=
EXTT12=
EXTT13=
EXTT14=
EXTT15=
EXTT16=
EXTT17=
PLAYORDER=
